<?xml version="1.0" standalone="no"?>
<!DOCTYPE svg PUBLIC "-//W3C//DTD SVG 20010904//EN"
 "http://www.w3.org/TR/2001/REC-SVG-20010904/DTD/svg10.dtd">
<svg version="1.0" xmlns="http://www.w3.org/2000/svg"
 width="300.000000pt" height="270.000000pt" viewBox="0 0 300.000000 270.000000"
 preserveAspectRatio="xMidYMid meet">
    <metadata>
        Created by potrace 1.10, written by Peter Selinger 2001-2011
    </metadata>
    <g transform="translate(0.000000,270.000000) scale(0.100000,-0.100000)"
    fill="#000000" stroke="none">
        <path d="M1298 2553 c18 -2 45 -2 60 0 15 2 0 4 -33 4 -33 0 -45 -2 -27 -4z"/>
        <path d="M2177 2553 c38 -3 53 -8 56 -21 3 -12 4 -11 3 3 -1 17 -8 20 -56 21
        l-55 1 52 -4z"/>
        <path d="M760 2437 l5 -62 3 54 c2 30 0 58 -5 62 -4 4 -6 -20 -3 -54z"/>
        <path d="M1355 1808 l-80 -83 83 80 c76 74 87 85 79 85 -1 0 -38 -37 -82 -82z"/>
        <path d="M1535 1618 l-90 -93 93 90 c50 49 92 91 92 92 0 8 -12 -4 -95 -89z"/>
        <path d="M2234 1420 c0 -85 2 -120 3 -77 2 42 2 112 0 155 -1 42 -3 7 -3 -78z"/>
        <path d="M763 905 c0 -38 2 -53 4 -32 2 20 2 52 0 70 -2 17 -4 1 -4 -38z"/>
        <path d="M1700 673 l-75 -78 80 75 c44 41 81 76 84 78 2 1 0 2 -5 2 -5 0 -43
        -35 -84 -77z"/>
        <path d="M1551 529 c-35 -33 -62 -61 -59 -64 2 -2 33 25 68 60 36 36 62 65 60
        65 -3 -1 -34 -28 -69 -61z"/>
        <path d="M1640 423 l-85 -88 88 85 c48 46 87 86 87 87 0 8 -11 -3 -90 -84z"/>
        <path d="M1905 170 c-16 -17 -33 -20 -169 -23 l-151 -3 151 -2 c149 -2 151 -2
        174 23 13 14 21 25 18 25 -3 0 -13 -9 -23 -20z"/>
        <path d="M1285 150 l-60 -7 57 -1 c31 -1 60 3 63 8 3 6 5 9 3 8 -2 -1 -30 -4
        -63 -8z"/>
        <path d="M2080 148 c0 -5 35 -7 78 -7 78 2 69 6 -26 11 -28 2 -52 0 -52 -4z"/>
        <path d="M833 143 c37 -2 96 -2 130 0 34 2 4 3 -68 3 -71 0 -99 -1 -62 -3z"/>
    </g>
</svg>
